<mxfile host="app.diagrams.net" agent="Mozilla/5.0 (Macintosh; Intel Mac OS X 10_15_7) AppleWebKit/537.36 (KHTML, like Gecko) Chrome/135.0.0.0 Safari/537.36" version="26.2.14">
  <diagram name="Page-1" id="N_Em_YJ43Ve3OFrW0WxE">
    <mxGraphModel dx="1280" dy="857" grid="1" gridSize="10" guides="1" tooltips="1" connect="1" arrows="1" fold="1" page="1" pageScale="1" pageWidth="850" pageHeight="1100" math="0" shadow="0">
      <root>
        <mxCell id="0" />
        <mxCell id="1" parent="0" />
        <mxCell id="WthhWjqXTJDTZiZqLZGE-22" style="edgeStyle=orthogonalEdgeStyle;rounded=0;orthogonalLoop=1;jettySize=auto;html=1;entryX=0.5;entryY=0;entryDx=0;entryDy=0;" edge="1" parent="1" source="WthhWjqXTJDTZiZqLZGE-1" target="WthhWjqXTJDTZiZqLZGE-20">
          <mxGeometry relative="1" as="geometry" />
        </mxCell>
        <mxCell id="WthhWjqXTJDTZiZqLZGE-1" value="Start" style="html=1;dashed=0;whiteSpace=wrap;shape=mxgraph.dfd.start" vertex="1" parent="1">
          <mxGeometry x="385" y="60" width="80" height="30" as="geometry" />
        </mxCell>
        <mxCell id="WthhWjqXTJDTZiZqLZGE-17" value="End" style="html=1;dashed=0;whiteSpace=wrap;shape=mxgraph.dfd.start" vertex="1" parent="1">
          <mxGeometry x="384.32000000000005" y="740" width="80" height="30" as="geometry" />
        </mxCell>
        <mxCell id="WthhWjqXTJDTZiZqLZGE-20" value="Session, User ID" style="shape=parallelogram;html=1;strokeWidth=2;perimeter=parallelogramPerimeter;whiteSpace=wrap;rounded=1;arcSize=12;size=0.23;" vertex="1" parent="1">
          <mxGeometry x="342.16" y="120" width="165" height="40" as="geometry" />
        </mxCell>
        <mxCell id="WthhWjqXTJDTZiZqLZGE-27" style="edgeStyle=orthogonalEdgeStyle;rounded=0;orthogonalLoop=1;jettySize=auto;html=1;" edge="1" parent="1" source="WthhWjqXTJDTZiZqLZGE-24" target="WthhWjqXTJDTZiZqLZGE-26">
          <mxGeometry relative="1" as="geometry" />
        </mxCell>
        <mxCell id="WthhWjqXTJDTZiZqLZGE-28" value="No" style="edgeLabel;html=1;align=center;verticalAlign=middle;resizable=0;points=[];" vertex="1" connectable="0" parent="WthhWjqXTJDTZiZqLZGE-27">
          <mxGeometry x="-0.1756" relative="1" as="geometry">
            <mxPoint as="offset" />
          </mxGeometry>
        </mxCell>
        <mxCell id="WthhWjqXTJDTZiZqLZGE-30" style="edgeStyle=orthogonalEdgeStyle;rounded=0;orthogonalLoop=1;jettySize=auto;html=1;" edge="1" parent="1" source="WthhWjqXTJDTZiZqLZGE-24">
          <mxGeometry relative="1" as="geometry">
            <mxPoint x="424.6600000000001" y="340" as="targetPoint" />
          </mxGeometry>
        </mxCell>
        <mxCell id="WthhWjqXTJDTZiZqLZGE-31" value="Yes" style="edgeLabel;html=1;align=center;verticalAlign=middle;resizable=0;points=[];" vertex="1" connectable="0" parent="WthhWjqXTJDTZiZqLZGE-30">
          <mxGeometry x="-0.2552" relative="1" as="geometry">
            <mxPoint as="offset" />
          </mxGeometry>
        </mxCell>
        <mxCell id="WthhWjqXTJDTZiZqLZGE-24" value="&lt;div&gt;Session&lt;/div&gt;&lt;div&gt;valid?&lt;/div&gt;" style="strokeWidth=2;html=1;shape=mxgraph.flowchart.decision;whiteSpace=wrap;" vertex="1" parent="1">
          <mxGeometry x="374.66" y="190" width="100" height="100" as="geometry" />
        </mxCell>
        <mxCell id="WthhWjqXTJDTZiZqLZGE-25" style="edgeStyle=orthogonalEdgeStyle;rounded=0;orthogonalLoop=1;jettySize=auto;html=1;entryX=0.5;entryY=0;entryDx=0;entryDy=0;entryPerimeter=0;" edge="1" parent="1" source="WthhWjqXTJDTZiZqLZGE-20" target="WthhWjqXTJDTZiZqLZGE-24">
          <mxGeometry relative="1" as="geometry" />
        </mxCell>
        <mxCell id="WthhWjqXTJDTZiZqLZGE-26" value="Register Module" style="html=1;dashed=0;whiteSpace=wrap;" vertex="1" parent="1">
          <mxGeometry x="540" y="215" width="110" height="50" as="geometry" />
        </mxCell>
        <mxCell id="WthhWjqXTJDTZiZqLZGE-39" style="edgeStyle=orthogonalEdgeStyle;rounded=0;orthogonalLoop=1;jettySize=auto;html=1;" edge="1" parent="1" source="WthhWjqXTJDTZiZqLZGE-32" target="WthhWjqXTJDTZiZqLZGE-38">
          <mxGeometry relative="1" as="geometry">
            <Array as="points">
              <mxPoint x="510" y="360" />
              <mxPoint x="510" y="360" />
            </Array>
          </mxGeometry>
        </mxCell>
        <mxCell id="WthhWjqXTJDTZiZqLZGE-32" value="Fetch User Info&lt;div&gt;w/ User ID&lt;/div&gt;" style="html=1;dashed=0;whiteSpace=wrap;" vertex="1" parent="1">
          <mxGeometry x="375" y="340" width="100" height="50" as="geometry" />
        </mxCell>
        <mxCell id="WthhWjqXTJDTZiZqLZGE-37" value="No" style="edgeStyle=orthogonalEdgeStyle;rounded=0;orthogonalLoop=1;jettySize=auto;html=1;entryX=0;entryY=0.5;entryDx=0;entryDy=0;" edge="1" parent="1" source="WthhWjqXTJDTZiZqLZGE-33" target="WthhWjqXTJDTZiZqLZGE-36">
          <mxGeometry relative="1" as="geometry" />
        </mxCell>
        <mxCell id="WthhWjqXTJDTZiZqLZGE-47" style="edgeStyle=orthogonalEdgeStyle;rounded=0;orthogonalLoop=1;jettySize=auto;html=1;entryX=0.5;entryY=0;entryDx=0;entryDy=0;" edge="1" parent="1" source="WthhWjqXTJDTZiZqLZGE-33" target="WthhWjqXTJDTZiZqLZGE-46">
          <mxGeometry relative="1" as="geometry" />
        </mxCell>
        <mxCell id="WthhWjqXTJDTZiZqLZGE-48" value="Yes" style="edgeLabel;html=1;align=center;verticalAlign=middle;resizable=0;points=[];" vertex="1" connectable="0" parent="WthhWjqXTJDTZiZqLZGE-47">
          <mxGeometry x="-0.1148" relative="1" as="geometry">
            <mxPoint as="offset" />
          </mxGeometry>
        </mxCell>
        <mxCell id="WthhWjqXTJDTZiZqLZGE-33" value="&lt;div&gt;User has&amp;nbsp;&lt;br&gt;information?&lt;/div&gt;" style="strokeWidth=2;html=1;shape=mxgraph.flowchart.decision;whiteSpace=wrap;" vertex="1" parent="1">
          <mxGeometry x="374.32000000000005" y="430" width="100" height="100" as="geometry" />
        </mxCell>
        <mxCell id="WthhWjqXTJDTZiZqLZGE-34" style="edgeStyle=orthogonalEdgeStyle;rounded=0;orthogonalLoop=1;jettySize=auto;html=1;entryX=0.5;entryY=0;entryDx=0;entryDy=0;entryPerimeter=0;" edge="1" parent="1" source="WthhWjqXTJDTZiZqLZGE-32" target="WthhWjqXTJDTZiZqLZGE-33">
          <mxGeometry relative="1" as="geometry" />
        </mxCell>
        <mxCell id="WthhWjqXTJDTZiZqLZGE-36" value="Register Module" style="html=1;dashed=0;whiteSpace=wrap;" vertex="1" parent="1">
          <mxGeometry x="540" y="455" width="110" height="50" as="geometry" />
        </mxCell>
        <mxCell id="WthhWjqXTJDTZiZqLZGE-40" style="edgeStyle=orthogonalEdgeStyle;rounded=0;orthogonalLoop=1;jettySize=auto;html=1;exitX=0;exitY=0.85;exitDx=0;exitDy=0;exitPerimeter=0;entryX=1;entryY=0.75;entryDx=0;entryDy=0;" edge="1" parent="1" source="WthhWjqXTJDTZiZqLZGE-38" target="WthhWjqXTJDTZiZqLZGE-32">
          <mxGeometry relative="1" as="geometry">
            <Array as="points">
              <mxPoint x="565" y="378" />
              <mxPoint x="520" y="378" />
            </Array>
          </mxGeometry>
        </mxCell>
        <mxCell id="WthhWjqXTJDTZiZqLZGE-38" value="&lt;div&gt;&lt;br&gt;&lt;/div&gt;&lt;div&gt;public.&lt;/div&gt;&lt;div&gt;users&lt;/div&gt;" style="strokeWidth=2;html=1;shape=mxgraph.flowchart.database;whiteSpace=wrap;" vertex="1" parent="1">
          <mxGeometry x="565" y="330" width="60" height="60" as="geometry" />
        </mxCell>
        <mxCell id="WthhWjqXTJDTZiZqLZGE-41" value="Application" style="strokeWidth=2;html=1;shape=mxgraph.flowchart.display;whiteSpace=wrap;" vertex="1" parent="1">
          <mxGeometry x="374.32" y="650" width="100" height="60" as="geometry" />
        </mxCell>
        <mxCell id="WthhWjqXTJDTZiZqLZGE-43" style="edgeStyle=orthogonalEdgeStyle;rounded=0;orthogonalLoop=1;jettySize=auto;html=1;entryX=0.5;entryY=0.5;entryDx=0;entryDy=-15;entryPerimeter=0;" edge="1" parent="1" source="WthhWjqXTJDTZiZqLZGE-41" target="WthhWjqXTJDTZiZqLZGE-17">
          <mxGeometry relative="1" as="geometry" />
        </mxCell>
        <mxCell id="WthhWjqXTJDTZiZqLZGE-45" value="User&lt;div&gt;Store&lt;/div&gt;" style="shape=internalStorage;whiteSpace=wrap;html=1;dx=15;dy=15;rounded=1;arcSize=8;strokeWidth=2;" vertex="1" parent="1">
          <mxGeometry x="540" y="560" width="70" height="70" as="geometry" />
        </mxCell>
        <mxCell id="WthhWjqXTJDTZiZqLZGE-49" style="edgeStyle=orthogonalEdgeStyle;rounded=0;orthogonalLoop=1;jettySize=auto;html=1;entryX=0;entryY=0.5;entryDx=0;entryDy=0;" edge="1" parent="1" source="WthhWjqXTJDTZiZqLZGE-46" target="WthhWjqXTJDTZiZqLZGE-45">
          <mxGeometry relative="1" as="geometry" />
        </mxCell>
        <mxCell id="WthhWjqXTJDTZiZqLZGE-50" style="edgeStyle=orthogonalEdgeStyle;rounded=0;orthogonalLoop=1;jettySize=auto;html=1;" edge="1" parent="1" source="WthhWjqXTJDTZiZqLZGE-46" target="WthhWjqXTJDTZiZqLZGE-41">
          <mxGeometry relative="1" as="geometry" />
        </mxCell>
        <mxCell id="WthhWjqXTJDTZiZqLZGE-46" value="Cache user info globally" style="html=1;dashed=0;whiteSpace=wrap;" vertex="1" parent="1">
          <mxGeometry x="375" y="570" width="100" height="50" as="geometry" />
        </mxCell>
      </root>
    </mxGraphModel>
  </diagram>
</mxfile>
